<svg width="33" height="17" viewBox="0 0 33 17" fill="none" xmlns="http://www.w3.org/2000/svg">
<path d="M28.6317 11.7012C28.6317 11.7012 31.1461 13.9258 31.768 14.9553C31.7801 14.9701 31.7896 14.9866 31.796 15.0041C32.0495 15.3844 32.1117 15.6825 31.9873 15.9026C31.7774 16.2661 31.0668 16.4486 30.8257 16.464H26.3818C26.0723 16.464 25.4286 16.3915 24.6449 15.9067C24.0462 15.532 23.4507 14.9149 22.8738 14.3117C22.0124 13.416 21.2676 12.6387 20.5134 12.6387C20.4182 12.6385 20.3236 12.6526 20.2336 12.6805C19.6629 12.8421 18.9383 13.5706 18.9383 15.5111C18.9383 16.1185 18.4034 16.464 18.0287 16.464H15.9933C15.2998 16.464 11.6892 16.2466 8.48761 13.2224C4.56451 9.51968 1.04104 2.09203 1.00683 2.02656C0.787586 1.54596 1.24785 1.28407 1.74542 1.28407H6.23295C6.83471 1.28407 7.03063 1.61004 7.16747 1.90258C7.32607 2.2383 7.91384 3.58118 8.87789 5.08984C10.439 7.54436 11.3984 8.54317 12.165 8.54317C12.309 8.54354 12.4506 8.50991 12.5755 8.44565C13.5769 7.95252 13.3903 4.74854 13.3437 4.08825C13.3437 3.96009 13.3421 2.6576 12.829 2.02795C12.462 1.57661 11.8369 1.40108 11.4591 1.337C11.5601 1.20606 11.7747 1.00546 12.05 0.887055C12.7357 0.580588 13.975 0.536011 15.2049 0.536011H15.8875C17.2217 0.552727 17.5668 0.629344 18.052 0.739393C19.0285 0.948348 19.0471 1.51531 18.9616 3.44606C18.9367 3.9977 18.9103 4.61899 18.9103 5.35033C18.9103 5.50635 18.9025 5.68048 18.9025 5.8574C18.873 6.84784 18.8341 7.96366 19.6147 8.42197C19.7159 8.47847 19.8328 8.50839 19.9521 8.50834C20.2227 8.50834 21.0328 8.50834 23.2299 5.13023C24.194 3.6383 24.9403 1.87889 24.9916 1.74656C25.0352 1.67273 25.1658 1.46516 25.3244 1.38158C25.4372 1.3278 25.5636 1.30094 25.6914 1.30357H30.9704C31.5457 1.30357 31.936 1.38158 32.0122 1.57661C32.1397 1.89283 31.9873 2.8582 29.5771 5.77799C29.1713 6.26416 28.8152 6.68486 28.5027 7.05262C26.318 9.62137 26.318 9.75093 28.6317 11.7012Z" fill="white"/>
</svg>
